# File created by Blade
# Date/Time:  Wed Apr 08 14:55:03 2015
# Frame Rate: 120.000 fps
#------------------------------------------------------
:FULLY-SPECIFIED
:DEGREES
1540
root 3.162614 31.579256 -9.345850 20.917175 -26.577067 -8.379814
Spine -17.291237 16.655057 -5.169601
Head -9.163695 2.159490 1.736033
LeftShoulder -31.910459 52.928705 1.507848
LeftArm 36.923642 -14.113449 -78.323199
LeftForeArm 10.724406 -0.000000 109.596005
LeftHand 1.983892 0.000000 -13.549462
LeftHandThumb1 -26.253704 0.000000 33.147579
RightShoulder 0.540930 -0.834663 -20.763765
RightArm 27.614641 -42.465945 80.590188
RightForeArm 5.658660 -0.000000 108.858229
RightHand 10.550462 -0.000000 -0.288809
RightHandThumb1 -24.326973 -0.000000 -32.862282
LeftUpLeg -43.720980 11.390623 1.647514
LeftLeg 34.475694 -0.000000 -0.000000
LeftFoot -9.961843 32.116127 -13.515532
LeftToeBase -10.193212 -0.000000 0.000000
RightUpLeg 1.262776 -11.093793 2.395790
RightLeg 9.398756 -0.000000 -0.000000
RightFoot -8.988531 1.332667 25.819785
RightToeBase -16.817593 -0.000000 0.000000
1541
root 3.135602 31.620892 -9.096678 20.553031 -25.842225 -8.453257
Spine -17.467235 17.342728 -5.621230
Head -9.322096 0.818248 2.535907
LeftShoulder -32.116675 52.861882 1.388320
LeftArm 36.940589 -15.211168 -78.849759
LeftForeArm 11.383013 -0.000000 109.769351
LeftHand 2.074271 0.000000 -13.615126
LeftHandThumb1 -26.253704 0.000000 33.147579
RightShoulder 0.736068 -0.610649 -20.974595
RightArm 27.315325 -42.142669 80.920703
RightForeArm 5.620973 0.000000 108.931094
RightHand 10.461188 -0.000000 -0.629199
RightHandThumb1 -24.326973 -0.000000 -32.862282
LeftUpLeg -42.882880 10.594573 2.009656
LeftLeg 34.331808 -0.000000 -0.000000
LeftFoot -9.959044 32.099247 -12.992253
LeftToeBase -10.413470 -0.000000 0.000000
RightUpLeg 0.964132 -11.859509 1.944520
RightLeg 12.015446 -0.000000 -0.000000
RightFoot -7.480889 3.267573 27.976159
RightToeBase -18.129281 -0.000000 0.000000
1542
root 3.110215 31.665167 -8.846011 20.178741 -25.138442 -8.524320
Spine -17.676424 18.099522 -6.126310
Head -9.451136 -0.578282 3.429368
LeftShoulder -32.240650 52.759779 1.376472
LeftArm 36.915776 -16.424296 -79.342526
LeftForeArm 12.011100 -0.000000 110.040312
LeftHand 2.108768 -0.000000 -13.755645
LeftHandThumb1 -26.253704 0.000000 33.147579
RightShoulder 0.905108 -0.456094 -21.235258
RightArm 27.055578 -41.726449 81.217015
RightForeArm 5.450427 -0.000000 109.001112
RightHand 10.534464 -0.000000 -0.892118
RightHandThumb1 -24.326973 -0.000000 -32.862282
LeftUpLeg -41.998974 9.859525 2.324962
LeftLeg 34.120770 -0.000000 -0.000000
LeftFoot -9.889029 32.020902 -12.314144
LeftToeBase -10.733461 -0.000000 0.000000
RightUpLeg 0.434085 -12.861339 1.388243
RightLeg 15.248451 -0.000000 -0.000000
RightFoot -5.569743 5.449025 30.860811
RightToeBase -17.058882 -0.000000 0.000000
1543
root 3.098995 31.710746 -8.605943 19.884521 -24.512403 -8.631764
Spine -17.952374 18.895878 -6.611818
Head -9.571811 -1.883404 4.299637
LeftShoulder -32.483331 52.662701 1.266963
LeftArm 36.965913 -17.764886 -79.853009
LeftForeArm 12.540402 0.000000 110.356726
LeftHand 2.199856 -0.000000 -13.983956
LeftHandThumb1 -26.253704 0.000000 33.147579
RightShoulder 1.120289 -0.108127 -21.532029
RightArm 26.607663 -41.288828 81.573304
RightForeArm 5.385832 -0.000000 109.110226
RightHand 10.520375 -0.000000 -0.990501
RightHandThumb1 -24.326973 -0.000000 -32.862282
LeftUpLeg -41.167635 9.174709 2.630137
LeftLeg 33.857210 -0.000000 -0.000000
LeftFoot -9.836634 31.923236 -11.698018
LeftToeBase -11.229122 -0.000000 0.000000
RightUpLeg -0.454405 -13.959366 0.788370
RightLeg 19.134015 -0.000000 -0.000000
RightFoot -3.076049 6.784234 33.236767
RightToeBase -17.588386 -0.000000 0.000000
1544
root 3.089422 31.753584 -8.366440 19.564265 -23.895708 -8.782257
Spine -18.213748 19.714212 -7.047040
Head -9.674759 -3.115843 5.200092
LeftShoulder -32.764123 52.552909 1.169308
LeftArm 37.101061 -19.232286 -80.345009
LeftForeArm 12.918703 -0.000000 110.687227
LeftHand 2.259963 0.000000 -14.287145
LeftHandThumb1 -26.253704 0.000000 33.147579
RightShoulder 1.278062 0.245222 -21.879589
RightArm 26.242062 -40.883539 81.825103
RightForeArm 5.595315 -0.000000 109.291673
RightHand 10.292291 -0.000000 -1.347060
RightHandThumb1 -24.326973 -0.000000 -32.862282
LeftUpLeg -40.262753 8.352034 3.013801
LeftLeg 33.543338 -0.000000 -0.000000
LeftFoot -9.929779 32.044489 -11.175269
LeftToeBase -11.386174 -0.000000 0.000000
RightUpLeg -1.523836 -15.209287 0.159723
RightLeg 23.656866 -0.000000 -0.000000
RightFoot -0.088285 7.358189 35.284663
RightToeBase -17.715386 -0.000000 0.000000
1545
root 3.090193 31.794116 -8.129640 19.243385 -23.307565 -8.894664
Spine -18.495895 20.598576 -7.510509
Head -9.806240 -4.354372 6.026106
LeftShoulder -32.817498 52.354824 1.250494
LeftArm 37.178737 -20.971377 -80.897526
LeftForeArm 13.079864 -0.000000 111.049461
LeftHand 2.455183 -0.000000 -14.811936
LeftHandThumb1 -26.253704 0.000000 33.147579
RightShoulder 1.330379 0.561153 -22.366204
RightArm 25.815170 -40.389095 82.255501
RightForeArm 5.524142 -0.000000 109.323357
RightHand 10.554546 -0.000000 -1.755574
RightHandThumb1 -24.326973 -0.000000 -32.862282
LeftUpLeg -39.343561 7.444631 3.368515
LeftLeg 33.157692 -0.000000 -0.000000
LeftFoot -10.018802 32.231278 -10.689277
LeftToeBase -11.702532 -0.000000 0.000000
RightUpLeg -2.815488 -16.541917 -0.592267
RightLeg 28.790268 -0.000000 -0.000000
RightFoot 3.325084 7.361306 37.415913
RightToeBase -16.917896 -0.000000 0.000000
1546
root 3.091650 31.830088 -7.898813 18.915485 -22.736910 -9.110582
Spine -18.734040 21.472073 -7.819830
Head -9.921910 -5.458396 6.824023
LeftShoulder -33.033497 52.166815 1.187984
LeftArm 37.383100 -22.867482 -81.350488
LeftForeArm 12.837348 -0.000000 111.408873
LeftHand 2.443350 0.000000 -14.942354
LeftHandThumb1 -26.253704 0.000000 33.147579
RightShoulder 1.453376 0.897801 -22.868698
RightArm 25.438561 -39.838985 82.583867
RightForeArm 5.777158 -0.000000 109.451077
RightHand 10.706812 0.000000 -2.258548
RightHandThumb1 -24.326973 -0.000000 -32.862282
LeftUpLeg -38.395086 6.501898 3.822022
LeftLeg 32.789604 -0.000000 -0.000000
LeftFoot -10.147041 32.544772 -10.157764
LeftToeBase -11.934211 -0.000000 0.000000
RightUpLeg -4.215875 -17.784608 -1.304420
RightLeg 34.389421 -0.000000 -0.000000
RightFoot 6.731703 6.759387 38.714023
RightToeBase -13.795355 -0.000000 0.000000
1547
root 3.093876 31.861243 -7.675164 18.505972 -22.144154 -9.282607
Spine -18.852428 22.094886 -8.021395
Head -10.010517 -6.286378 7.550666
LeftShoulder -33.548979 51.966668 0.870092
LeftArm 37.713263 -24.962340 -81.794376
LeftForeArm 12.481584 -0.000000 111.736461
LeftHand 2.577250 0.000000 -15.348762
LeftHandThumb1 -26.253704 0.000000 33.147579
RightShoulder 1.800013 1.393895 -23.411710
RightArm 25.044154 -39.320446 82.930026
RightForeArm 6.122514 -0.000000 109.578740
RightHand 10.759071 0.000000 -2.551536
RightHandThumb1 -24.326973 -0.000000 -32.862282
LeftUpLeg -37.400023 5.513623 4.260420
LeftLeg 32.424827 -0.000000 -0.000000
LeftFoot -10.325022 32.726405 -9.779386
LeftToeBase -12.328683 -0.000000 0.000000
RightUpLeg -5.627359 -18.719939 -2.083916
RightLeg 40.283499 -0.000000 -0.000000
RightFoot 10.076698 5.216540 40.042449
RightToeBase -5.994765 -0.000000 0.000000
1548
root 3.090560 31.891873 -7.457166 18.128646 -21.561816 -9.552073
Spine -18.990909 22.788044 -8.180983
Head -10.130094 -7.272192 8.338483
LeftShoulder -33.951866 51.726717 0.729011
LeftArm 38.138256 -27.147268 -82.220743
LeftForeArm 11.665995 -0.000000 112.043649
LeftHand 2.546582 -0.000000 -14.898851
LeftHandThumb1 -26.253704 0.000000 33.147579
RightShoulder 2.032085 1.810578 -23.913252
RightArm 24.793584 -38.844278 83.080887
RightForeArm 6.711214 0.000000 109.720091
RightHand 10.968471 -0.000000 -2.845034
RightHandThumb1 -24.326973 -0.000000 -32.862282
LeftUpLeg -36.443152 4.507047 4.775405
LeftLeg 32.116300 -0.000000 -0.000000
LeftFoot -10.507810 33.087547 -9.369988
LeftToeBase -12.471197 -0.000000 0.000000
RightUpLeg -7.022905 -19.217994 -2.743282
RightLeg 46.114560 -0.000000 -0.000000
RightFoot 13.911824 2.586544 40.073968
RightToeBase 4.140328 -0.000000 -0.000000
1549
root 3.082235 31.921352 -7.259502 17.763949 -20.938703 -9.896779
Spine -19.093391 23.511865 -8.255589
Head -10.270322 -8.205566 9.163264
LeftShoulder -34.258885 51.568637 0.636655
LeftArm 38.827003 -29.467846 -82.629599
LeftForeArm 10.778498 -0.000000 112.333853
LeftHand 2.581630 -0.000000 -14.332197
LeftHandThumb1 -26.253704 0.000000 33.147579
RightShoulder 2.263299 2.211615 -24.381574
RightArm 24.507644 -38.123223 83.226696
RightForeArm 6.623523 -0.000000 109.982857
RightHand 10.911254 0.000000 -2.224998
RightHandThumb1 -24.326973 -0.000000 -32.862282
LeftUpLeg -35.576973 3.576528 5.352994
LeftLeg 31.933112 -0.000000 -0.000000
LeftFoot -10.690619 33.241041 -9.144321
LeftToeBase -12.655935 -0.000000 0.000000
RightUpLeg -8.423411 -19.409373 -3.262119
RightLeg 51.975838 -0.000000 -0.000000
RightFoot 18.340184 -0.124925 38.398819
RightToeBase 15.257526 -0.000000 -0.000000
1550
root 3.068237 31.952217 -7.071066 17.449315 -20.215535 -10.296367
Spine -19.245362 24.096204 -8.219290
Head -10.323532 -9.089483 9.944796
LeftShoulder -34.534132 51.363201 0.617953
LeftArm 39.631088 -31.893317 -82.964778
LeftForeArm 9.984080 -0.000000 112.546121
LeftHand 2.662991 -0.000000 -13.689792
LeftHandThumb1 -26.253704 0.000000 33.147579
RightShoulder 2.528822 2.682813 -24.815490
RightArm 24.099087 -37.396910 83.445812
RightForeArm 6.944279 -0.000000 110.245582
RightHand 10.913276 0.000000 -2.747983
RightHandThumb1 -24.326973 -0.000000 -32.862282
LeftUpLeg -34.814152 2.679387 5.981958
LeftLeg 31.803548 -0.000000 -0.000000
LeftFoot -10.931300 33.325488 -9.097744
LeftToeBase -13.138946 -0.000000 0.000000
RightUpLeg -9.886856 -19.598118 -3.661494
RightLeg 58.122067 -0.000000 -0.000000
RightFoot 23.171541 -0.468863 34.364536
RightToeBase 23.682274 -0.000000 -0.000000
1551
root 3.054254 31.983706 -6.894074 17.129944 -19.474534 -10.692160
Spine -19.357768 24.570739 -8.156057
Head -10.415025 -9.921712 10.791751
LeftShoulder -35.011237 51.129427 0.486122
LeftArm 40.728898 -34.292258 -83.223981
LeftForeArm 8.992125 -0.000000 112.721443
LeftHand 2.579405 -0.000000 -12.706321
LeftHandThumb1 -26.253704 0.000000 33.147579
RightShoulder 2.744863 3.129975 -25.156749
RightArm 23.860623 -36.720251 83.428867
RightForeArm 7.251154 -0.000000 110.540634
RightHand 11.045912 0.000000 -3.430290
RightHandThumb1 -24.326973 -0.000000 -32.862282
LeftUpLeg -34.115695 1.859020 6.582601
LeftLeg 31.734514 -0.000000 -0.000000
LeftFoot -11.067036 33.258458 -8.967426
LeftToeBase -13.489024 -0.000000 0.000000
RightUpLeg -11.432141 -19.651140 -4.098914
RightLeg 64.576743 -0.000000 -0.000000
RightFoot 27.275529 2.070291 29.825100
RightToeBase 19.153497 -0.000000 -0.000000
